<svg viewBox="0 0 878.3333129882812 400" xmlns="http://www.w3.org/2000/svg"><g><g><g><g><g><line x1="41.0620002746582" y1="378" x2="36.0620002746582" y2="378" style="visibility: inherit;" fill="rgb(0, 0, 0)" stroke="rgb(204, 204, 204)" stroke-width="1px"></line><line x1="41.0620002746582" y1="330.75" x2="36.0620002746582" y2="330.75" style="visibility: inherit;" fill="rgb(0, 0, 0)" stroke="rgb(204, 204, 204)" stroke-width="1px"></line><line x1="41.0620002746582" y1="283.5" x2="36.0620002746582" y2="283.5" style="visibility: inherit;" fill="rgb(0, 0, 0)" stroke="rgb(204, 204, 204)" stroke-width="1px"></line><line x1="41.0620002746582" y1="236.24999999999997" x2="36.0620002746582" y2="236.24999999999997" style="visibility: inherit;" fill="rgb(0, 0, 0)" stroke="rgb(204, 204, 204)" stroke-width="1px"></line><line x1="41.0620002746582" y1="189.00000000000003" x2="36.0620002746582" y2="189.00000000000003" style="visibility: inherit;" fill="rgb(0, 0, 0)" stroke="rgb(204, 204, 204)" stroke-width="1px"></line><line x1="41.0620002746582" y1="141.75" x2="36.0620002746582" y2="141.75" style="visibility: inherit;" fill="rgb(0, 0, 0)" stroke="rgb(204, 204, 204)" stroke-width="1px"></line><line x1="41.0620002746582" y1="94.50000000000006" x2="36.0620002746582" y2="94.50000000000006" style="visibility: inherit;" fill="rgb(0, 0, 0)" stroke="rgb(204, 204, 204)" stroke-width="1px"></line><line x1="41.0620002746582" y1="47.25000000000006" x2="36.0620002746582" y2="47.25000000000006" style="visibility: inherit;" fill="rgb(0, 0, 0)" stroke="rgb(204, 204, 204)" stroke-width="1px"></line><line x1="41.0620002746582" y1="0" x2="36.0620002746582" y2="0" style="visibility: inherit;" fill="rgb(0, 0, 0)" stroke="rgb(204, 204, 204)" stroke-width="1px"></line></g><g transform="translate(31.062000274658203, 0)"><text style="text-anchor: end; visibility: hidden; font-family: &quot;Helvetica Neue&quot;, sans-serif; font-size: 12px; font-weight: 200;" x="0" y="378" dx="0em" dy="0.3em" fill="rgb(50, 49, 63)" stroke="none" stroke-width="1px">0.8</text><text style="text-anchor: end; visibility: inherit; font-family: &quot;Helvetica Neue&quot;, sans-serif; font-size: 12px; font-weight: 200;" x="0" y="330.75" dx="0em" dy="0.3em" fill="rgb(50, 49, 63)" stroke="none" stroke-width="1px">0.9</text><text style="text-anchor: end; visibility: inherit; font-family: &quot;Helvetica Neue&quot;, sans-serif; font-size: 12px; font-weight: 200;" x="0" y="283.5" dx="0em" dy="0.3em" fill="rgb(50, 49, 63)" stroke="none" stroke-width="1px">1</text><text style="text-anchor: end; visibility: inherit; font-family: &quot;Helvetica Neue&quot;, sans-serif; font-size: 12px; font-weight: 200;" x="0" y="236.24999999999997" dx="0em" dy="0.3em" fill="rgb(50, 49, 63)" stroke="none" stroke-width="1px">1.1</text><text style="text-anchor: end; visibility: inherit; font-family: &quot;Helvetica Neue&quot;, sans-serif; font-size: 12px; font-weight: 200;" x="0" y="189.00000000000003" dx="0em" dy="0.3em" fill="rgb(50, 49, 63)" stroke="none" stroke-width="1px">1.2</text><text style="text-anchor: end; visibility: inherit; font-family: &quot;Helvetica Neue&quot;, sans-serif; font-size: 12px; font-weight: 200;" x="0" y="141.75" dx="0em" dy="0.3em" fill="rgb(50, 49, 63)" stroke="none" stroke-width="1px">1.3</text><text style="text-anchor: end; visibility: inherit; font-family: &quot;Helvetica Neue&quot;, sans-serif; font-size: 12px; font-weight: 200;" x="0" y="94.50000000000006" dx="0em" dy="0.3em" fill="rgb(50, 49, 63)" stroke="none" stroke-width="1px">1.4</text><text style="text-anchor: end; visibility: inherit; font-family: &quot;Helvetica Neue&quot;, sans-serif; font-size: 12px; font-weight: 200;" x="0" y="47.25000000000006" dx="0em" dy="0.3em" fill="rgb(50, 49, 63)" stroke="none" stroke-width="1px">1.5</text><text style="text-anchor: end; visibility: hidden; font-family: &quot;Helvetica Neue&quot;, sans-serif; font-size: 12px; font-weight: 200;" x="0" y="0" dx="0em" dy="0.3em" fill="rgb(50, 49, 63)" stroke="none" stroke-width="1px">1.6</text></g><line x1="41.0620002746582" y1="0" x2="41.0620002746582" y2="378" fill="rgb(0, 0, 0)" stroke="rgb(204, 204, 204)" stroke-width="1px"></line></g></g><g transform="translate(41, 0)" clip-path="url(#clip_0)"><clipPath id="clip_0"><rect width="837" height="378"></rect></clipPath><g><g><g><line x1="0" y1="0" x2="0" y2="378" fill="rgb(0, 0, 0)" stroke="rgb(60, 60, 60)" stroke-width="1px" opacity="0.25"></line><line x1="83.72709997253418" y1="0" x2="83.72709997253418" y2="378" fill="rgb(0, 0, 0)" stroke="rgb(60, 60, 60)" stroke-width="1px" opacity="0.25"></line><line x1="167.45419994506835" y1="0" x2="167.45419994506835" y2="378" fill="rgb(0, 0, 0)" stroke="rgb(60, 60, 60)" stroke-width="1px" opacity="0.25"></line><line x1="251.18129991760256" y1="0" x2="251.18129991760256" y2="378" fill="rgb(0, 0, 0)" stroke="rgb(60, 60, 60)" stroke-width="1px" opacity="0.25"></line><line x1="334.9083998901367" y1="0" x2="334.9083998901367" y2="378" fill="rgb(0, 0, 0)" stroke="rgb(60, 60, 60)" stroke-width="1px" opacity="0.25"></line><line x1="418.6354998626709" y1="0" x2="418.6354998626709" y2="378" fill="rgb(0, 0, 0)" stroke="rgb(60, 60, 60)" stroke-width="1px" opacity="0.25"></line><line x1="502.36259983520506" y1="0" x2="502.36259983520506" y2="378" fill="rgb(0, 0, 0)" stroke="rgb(60, 60, 60)" stroke-width="1px" opacity="0.25"></line><line x1="586.0896998077392" y1="0" x2="586.0896998077392" y2="378" fill="rgb(0, 0, 0)" stroke="rgb(60, 60, 60)" stroke-width="1px" opacity="0.25"></line><line x1="669.8167997802734" y1="0" x2="669.8167997802734" y2="378" fill="rgb(0, 0, 0)" stroke="rgb(60, 60, 60)" stroke-width="1px" opacity="0.25"></line><line x1="753.5438997528076" y1="0" x2="753.5438997528076" y2="378" fill="rgb(0, 0, 0)" stroke="rgb(60, 60, 60)" stroke-width="1px" opacity="0.25"></line><line x1="837.2709997253418" y1="0" x2="837.2709997253418" y2="378" fill="rgb(0, 0, 0)" stroke="rgb(60, 60, 60)" stroke-width="1px" opacity="0.25"></line></g><g><line x1="0" y1="378" x2="837.2709997253418" y2="378" fill="rgb(0, 0, 0)" stroke="rgb(60, 60, 60)" stroke-width="1px" opacity="0.25"></line><line x1="0" y1="330.75" x2="837.2709997253418" y2="330.75" fill="rgb(0, 0, 0)" stroke="rgb(60, 60, 60)" stroke-width="1px" opacity="0.25"></line><line x1="0" y1="283.5" x2="837.2709997253418" y2="283.5" fill="rgb(0, 0, 0)" stroke="rgb(60, 60, 60)" stroke-width="1px" opacity="0.25"></line><line x1="0" y1="236.24999999999997" x2="837.2709997253418" y2="236.24999999999997" fill="rgb(0, 0, 0)" stroke="rgb(60, 60, 60)" stroke-width="1px" opacity="0.25"></line><line x1="0" y1="189.00000000000003" x2="837.2709997253418" y2="189.00000000000003" fill="rgb(0, 0, 0)" stroke="rgb(60, 60, 60)" stroke-width="1px" opacity="0.25"></line><line x1="0" y1="141.75" x2="837.2709997253418" y2="141.75" fill="rgb(0, 0, 0)" stroke="rgb(60, 60, 60)" stroke-width="1px" opacity="0.25"></line><line x1="0" y1="94.50000000000006" x2="837.2709997253418" y2="94.50000000000006" fill="rgb(0, 0, 0)" stroke="rgb(60, 60, 60)" stroke-width="1px" opacity="0.25"></line><line x1="0" y1="47.25000000000006" x2="837.2709997253418" y2="47.25000000000006" fill="rgb(0, 0, 0)" stroke="rgb(60, 60, 60)" stroke-width="1px" opacity="0.25"></line><line x1="0" y1="0" x2="837.2709997253418" y2="0" fill="rgb(0, 0, 0)" stroke="rgb(60, 60, 60)" stroke-width="1px" opacity="0.25"></line></g></g></g><g><g><line x1="0" y1="756" x2="837.2709997253418" y2="756" fill="rgb(0, 0, 0)" stroke="rgb(153, 153, 153)" stroke-width="1.5px"></line></g></g><g><g><line x1="83.72709997253418" y1="0" x2="83.72709997253418" y2="378" fill="rgb(0, 0, 0)" stroke="rgb(153, 153, 153)" stroke-width="1.5px"></line></g></g><g><g><g><g><g><path style="fill: none;" stroke="rgb(255, 112, 67)" stroke-width="2px" d="M101.68005080886712,-2.3394739475438655L102.03868188708282,2.7111143373139157L102.04565914541385,7.112398901145298L102.13403775094042,11.020118261742425L102.3833584486364,15.356901553368118L103.50716219048998,18.741549913062215L103.90812196924733,22.072527200089098L106.19666270182995,25.124922026399645L107.61862794969682,28.693424238230477L107.73631104021376,32.84336043313908L108.17308741173716,35.17781626518473L110.52674922207616,39.407651684051416L110.54116888929366,42.37783814670411L110.93282565694297,45.10197733137062L111.45612003177129,48.18680383607767L112.02965066658314,51.20381695382446L112.08918993767475,54.13569704168725L112.91018066796097,56.18264425680508L113.11577721344908,59.24833367142247L113.77443039989967,61.97893316195007L114.9531219072908,63.65068602740246L115.84807157588611,66.06020901699998L116.46579151346126,68.60016957105194L117.14212042101717,71.36687771485657L117.26771107097598,74.13117169215525L118.49105703168578,76.2053622000816L118.55013115222195,78.2688149547962L119.37437793639602,80.95151173634088L120.73540846150509,83.06285194664332L121.81502290059538,85.06354221515102L122.0229451988605,87.15927416386342L123.60910859278462,89.10146901887862L123.7146977688611,90.85225424572195L125.14503572672523,92.66811379516685L126.1613896902807,94.51697937407391L126.49490263850463,96.38229042230472L127.13681040496074,97.82226086323186L127.55684135648961,99.38918119086424L127.60893821869473,100.47691762090096L127.88244674527168,101.71623989929361L128.50016668284684,103.23095942480154L130.14959055230574,105.14782426137549L130.29099632114824,106.66921866492487L130.80870888931176,108.45790725001501L132.92886512083848,109.9302373278731L133.14422982799007,111.45162569808679L133.86381773719845,113.18645788516886L133.95498724605744,114.69931040524295L135.04111379292337,115.98643920872689L135.86815148042984,117.53526235717919L137.0384702778237,118.8280938157452L137.34546964438968,120.15060668715654L139.07815546326572,121.72964656558116L139.65912850696404,123.0387597952404L139.68145573362335,124.27794208274818L140.03450500517422,125.1937109055228L142.07791139505946,126.26812761200992L142.15140518281314,127.68354915505583L142.40956374106176,128.75775930592377L143.5719749790138,130.1325615164652L144.19434642214296,131.3825445613609L145.0334780240899,132.57090873137778L145.33489558399106,134.01473787934057L146.38427523698013,135.2485181296689L146.48707350972418,136.46297071182462L147.37690652221008,137.04037722428205L147.45086546051914,138.2864508623713L148.13324132529527,139.45536877224956L150.19385828573044,140.59521638792194L150.56876963338524,141.3270067965714L150.62226194725656,142.27974059430483L151.05392166267052,143.33440993615767L153.12477193532456,144.472351779849L154.6844217475907,145.38032894764183L155.32214315904815,146.4148735388004L155.4230808295706,147.6684910815329L156.26035182929596,148.43370363572268L156.39571064091822,148.9514691233824L157.4757902305639,149.774152527305L157.95163924874112,150.66822035736794L160.7983606478073,151.58642979710748L160.84999235945705,152.52455725304213L161.72075419917138,153.592228190908L162.31103025397775,154.25548115829045L162.62826293276257,155.0090778239732L163.26365859144303,155.8304188432066L164.39723049496007,156.6802429099627L164.40467290384652,157.46924459724727L164.57770891045638,158.21369096233L165.10007298417395,159.01616038898092L165.49870701015428,159.83866318114187L165.52335998959063,160.5642539459879L165.99316205054765,161.11043457865412L166.05223617108382,162.06016111000645L166.49459434927203,162.41574841215706L167.10998853407017,163.17383803783068L169.45899883885514,163.88332849899535L169.85670256372467,164.48181437996956L170.00369013923202,165.1046989237888L170.2976652902467,165.4940050550842L170.55582384849535,166.12888397489158L171.43402809709616,166.97151648234117L171.98476635469325,167.60598812561534L173.56581309250797,168.42359397784918L173.60255998638476,169.35099300642213L174.88125886318755,170.0989539746437L175.07290089201356,170.77956669991693L175.99994594893167,171.4021464267962L178.8061992496778,172.22299023635284L180.35654605083587,172.99452533258057L180.813789046797,173.59305638843182L181.5845435170997,174.37116043215886L181.78362795481218,175.13344977972724L182.02643654473255,175.90995301411655L182.13714237691843,176.5127021231031L184.30009245954224,177.05634020327616L185.36203117752723,177.5257040209006L185.73740767573742,178.1086506816308L185.90625732734867,178.73584011730517L187.32403622021693,179.2047298043955L187.87151842392623,179.7493636026177L189.39488649287094,180.4955455774821L190.44287069419383,181.03622471803723L190.99128319901394,181.46344250510796L191.18385552895074,182.16286368444142L191.31735373835141,182.63410580617654L191.75738616376262,182.97162768579378L192.13322781252822,183.32336713109314L193.57054302872336,183.74311543127652L193.792884994206,184.4890328231449L193.95801344137405,185.21829033059737L194.64457566114885,185.95998747724386L194.8715691321855,186.4627633737905L195.3488136020289,187.03811690145633L195.49114967198224,187.55449300184574L197.0521949359146,188.0173961160121L198.8420942731052,188.53361238240583L200.00729641438966,188.83055639258856L200.02218123216255,189.17321605479387L200.25894286486266,189.58029729168769L201.99860594206976,190.14596291067284L202.17629345423367,190.66963153480225L204.86951517001685,191.03327875440053L205.8654025091346,191.56015046289608L206.4119544117331,192.0554373202145L209.34705441632585,192.55167533690252L210.19269812604844,192.74709803380804L210.55505040870736,193.2594557064359L210.86902703360437,193.58552651400254L212.19842732094602,194.02856270181633L212.45426012641767,194.5243122239179L213.9604176248125,194.94825568042742L214.1478732986399,195.36036493790922L214.3120714446971,195.82179984493095L215.82753195419994,196.25056246234752L215.93172567861026,196.65037070492832L216.14662523520644,196.97393053728564L216.20662965685338,197.2776722634308L218.86822113486917,197.75394266514127L219.4208199946879,198.2139905311583L219.76968291124012,198.46299483816077L222.68012993639647,198.92288164118187L226.44226762849567,199.28021592349916L227.68421961142167,199.69431146661785L228.07680668018173,200.05565822690147L228.83174603160077,200.6409738882866L230.7704935465203,200.9305695677775L231.57892521181066,201.26523110409403L231.68218863511015,201.64812794400657L232.25385866770037,201.95073104169668L233.1060144851986,202.39023274307206L233.78839034997478,202.74255406533408L234.2177243126117,203.11656005721537L234.58426295026922,203.46793541589798L234.7177611596699,203.92129219511622L234.7838125385371,204.3335292907408L235.34850531279633,204.76254143332886L236.16158848364068,205.2428350318879L236.22066260417688,205.6432584752877L236.75372514066868,206.0273962316908L237.6212309264952,206.41834304347645L237.95474387471916,206.59091409546556L238.35523850292108,206.9919018242858L238.36268091180756,207.31006481138266L238.525948756754,207.66180433847964L238.64456214838174,208.07027546324457L240.1395560334469,208.38543806001633L240.1618832601062,208.67099729610854L240.52516584387598,208.98849838804784L240.70285335603987,209.41378464892696L242.44251643324696,209.69288303654335L242.9165048492026,210.16192476540877L243.39979627626627,210.54457016432303L243.57422773454243,210.88590535522118L244.21846125377547,211.2904698791974L244.75338439248895,211.7037386178907L245.7353172149446,212.0719701584229L246.9093572167817,212.41556530145726L247.94896870810732,212.72337938496239L248.14944859748596,212.93915778073372L249.39977329040914,213.24061032703707L251.19571958482007,213.3906930168185L251.54458250137225,213.75229901358546L251.82646373794643,214.05406876403418L252.03438603621157,214.3270591363206L252.87956459537878,214.50765929563252L255.05553889355383,214.7731426282867L255.6118589578158,214.99365275407018L257.89667848595514,215.40601811503234L257.97110257481967,215.73324034064495L258.29717311415715,216.12752125431328L258.49021059464934,216.5125532741289L258.8232583923179,216.85783858319934L258.9939686461508,217.0735935250835L259.55121901152353,217.33258048383075L260.0405573958074,217.6449951325981L260.879223847199,218.01286006793478L261.84394609910476,218.3253029429977L261.9253474463003,218.64182086422275L262.07280017236303,218.9948127141877L263.86176920844287,219.22707618526704L264.9818517458532,219.35917941840384L265.2711753913139,219.67462130798677L265.48607494791,219.9126489350398L266.4935910509128,220.12833180058686L266.5084758686857,220.33277641963633L266.79175255692616,220.62199042843153L266.96944006909007,220.87671193814109L269.0402903417441,221.26565382723516L269.77243731594837,221.5039327654003L269.83244173759533,221.88180993900366L271.1637026271586,222.12985365208164L271.4093021204114,222.42264938892504L272.0381856713162,222.73621472802975L272.33727747844034,222.99402547684764L272.9782549437856,223.2384679429029L273.8829727740444,223.4035969991139L274.4918548510669,223.63532891754252L274.9421205886969,223.966070296042L277.2278704179471,224.21211535954953L278.184685110411,224.46276277228966L278.4563330347664,224.65453360507408L279.00614099125266,224.9642672371724L280.16436587420606,225.20033572177792L280.3560079030321,225.39304224629322L280.83418267398633,225.6570261859867L280.9393066995074,225.82883101503518L281.9449622002886,226.09209979665093L282.6887379383779,226.345902727887L283.1859838821037,226.55734705389415L285.6108137274194,226.8180755686283L285.6182561363059,227.16910940097918L285.84804051067493,227.24569382607766L288.244496172111,227.46710046839533L288.2882203243189,227.72638091984723L288.3328747776375,227.96991226677943L288.3626444131833,228.27043592730587L288.3700868220698,228.53407045809558L289.22503354290046,228.72706882391182L290.9372527373388,229.01348244860736L291.7000996481996,229.2766294422313L291.82662059926923,229.47816240671858L291.9601188086699,229.6290517048438L293.34673261432613,229.73146009727748L294.02585242521445,229.93552492779816L294.2784291767983,230.10982906917098L294.41146223564357,230.28636804086486L296.5888319854848,230.47744187554537L297.1074748547592,230.66980550999304L297.9828882000275,231.0007250329973L298.0787092144405,231.1936561223374L298.7657365847707,231.40359079417533L298.9797058402561,231.63066746544507L299.26949463627216,231.8128353475255L301.9338770176204,232.08314643367595L302.1264493475571,232.2567913507383L302.501360695212,232.31301137916134L302.68649061626235,232.55247843486177L303.72238090314477,232.712393944796L304.18101935077203,232.98653098221118L305.7532282280341,233.1604838721661L305.87184161966184,233.40630524614173L306.4211844255928,233.62691148061697L306.7923745688043,233.85204410792014L307.80082097291796,234.10878409420553L308.4087727488296,234.22143014984468L309.7837577906009,234.46235711980097L309.97679527109307,234.67858306768488L310.42985191205554,234.74582127481844L311.038733989078,235.04655856568166L311.5503996000213,235.28518416599263L311.85414291269944,235.50468263839437L312.17323619370586,235.73759145454048L313.160285672271,235.96680769927664L313.2426173205773,236.1832514138947L314.29664847912034,236.3964455581367L314.99483946278025,236.6021407874231L315.09810288607974,236.75235143757442L315.2320662460358,236.89643124966975L320.31383606381314,237.10578831973461L320.58780974094554,237.38398164115657L322.47259979143837,237.60874208743914L323.3038238339435,237.8635495684923L323.7861849598964,237.9327646032645L323.8387469726569,238.05322747598643L324.25319611752093,238.26252354528856L324.3257596041638,238.37491416381664L324.8341691612193,238.55261881876712L324.93045532618765,238.65978180700196L326.0947271663613,238.83286901974054L326.33846605739245,238.9547598264789L328.03068377794847,239.11711682195363L328.82423062546593,239.40762310257963L329.6796424968519,239.57510714985486L330.0433902311771,239.7214129771861L330.4587696771519,239.8406005963026L331.44488885460623,239.99991914687925L331.5048932762532,240.21489719487903L332.5789259086786,240.40775353482647L333.4603862111673,240.5788023782758L333.6599357994352,240.7099109150506L333.67482061720807,240.86756101498563L334.34417226643296,241.08757188055893L334.8623499851518,241.33172718989474L335.1144615861802,241.505190194096L335.32191873388996,241.60469038023504L337.0136713038905,241.73885195908477L337.73372436365435,241.88408728425125L337.8007060436324,242.0638608047426L337.88954979971436,242.20501468949138L338.0304904180014,242.3632026039614L338.15654621851564,242.54912855873107L338.55750599727304,242.6248415106743L338.651001258909,242.71685988920737L338.8365963305148,242.89159676113294L339.11150030875797,243.10966589249907L339.9538879645927,243.29119226918056L340.09482858287976,243.44084985132957L340.87442091373515,243.52425056319112L342.51407662153065,243.75857698271994L342.67036720814605,243.93235877300827L343.0773739441236,244.05039979569494L343.7239332161338,244.18995864882785L344.2751366242863,244.34096351845315L345.6389580527278,244.46370980907383L348.20426336577515,244.66767540028846L348.66476241562407,244.88548848212594L349.8220569974667,245.01051399377994L349.97741728297126,245.18261522486222L350.03695655406284,245.37381068203902L350.1476623862487,245.45826344275562L350.93841833043376,245.5572608543616L351.60637452799244,245.71445278417485L353.0795063369536,245.9346246181572L353.13206834971425,246.12193792359938L353.6586187784303,246.2680494327567L354.43030354984387,246.41102500577807L354.5568245009135,246.58427694705037L355.12384302794965,246.65534871793983L356.67744588299564,246.80603996584998L356.7960592746233,246.9572309049322L356.89234543959174,247.08791769939373L359.5218415292847,247.2892230090941L359.74464864532274,247.46179395307627L359.8851241130545,247.59088958321377L360.57308178449546,247.73413342747355L360.9647385521447,248.0085699229864L361.19684867929084,248.1054443410979L361.6201356847075,248.22118844631888L362.7746393632177,248.34931554930367L363.63470274015776,248.48400840945294L363.87937193229976,248.56827128068173L365.75625442335075,248.683706636543L366.0092963254899,248.84944673857677L368.05177241426435,249.01572289347257L368.8820661556587,249.2220681608142L371.3017793448649,249.3796976989134L371.70878608084246,249.60367740901305L371.8199570635838,249.67064975657698L373.1381937375959,249.8546855178572L373.25680712922355,250.0064129938781L373.33774332586364,250.12196018476035L374.2080400150226,250.21864891128467L374.67039966709325,250.2994009595596L375.1062457375058,250.45459847513172L375.2546287646793,250.58754497759924L376.14632237938685,250.67608148845798L377.1924459784881,250.77039388273136L377.44176667618405,250.92381725877095L378.4520736825193,251.0822898405352L379.1688706883953,251.259092193423L379.6070425115849,251.409241693965L379.687978708225,251.48234363890214L382.6193575083745,251.60223356642376L382.82727980663964,251.7072085357928L383.2049820576268,251.82624314558652L383.92829117127843,252.0459847704356L384.15807554564753,252.1739973724095L384.19482243952433,252.30492403146164L385.05116461202124,252.44601320953456L387.1034088624591,252.57852847177725L388.6463132547308,252.6829302717935L389.74406856548177,252.7837381353337L389.86314710766493,252.83164131101196L389.89245159265533,252.91495557570897L390.13712078479733,253.03224525044732L390.2403842080967,253.1346295702097L390.2850386614154,253.27424906711542L390.8264739079045,253.38189326503363L392.73545178727824,253.52733356436897L393.39270952206266,253.69045794944617L394.2527728990027,253.77568832727206L394.4537179389368,253.88209259468465L394.97329110932196,254.01016652616062L395.4770491608233,254.16424596890442L396.08918729173365,254.30674363966168L396.4450274666169,254.36105893620524L396.56410600880014,254.53212584818522L398.91218601247425,254.7363224689799L400.03552460377244,254.801759040092L400.9355909284771,254.90337057513676L401.7756528315349,254.97969827262636L402.47989077241505,255.10475619113816L403.3120451160309,255.234528073447L403.44554332543163,255.30664049437064L405.0024022343653,255.45751549805914L405.73594466023576,255.48204867213764L407.1309311758893,255.61697169168772L407.2574521269589,255.74645867074062L407.6230604635056,255.8736195902768L409.538550450655,255.94879336066413L411.3191467767376,256.0688552175029L411.57916593720785,256.1978846766425L411.978730264299,256.30576504298926L412.21595704755447,256.42849126302775L412.7536710896004,256.6047713960114L412.954150978979,256.6794491186274L412.9839206145248,256.81264964760396L413.450466621594,256.89202412868315L414.75195787561154,257.03611026078926L414.8482440405799,257.18956507681435L415.5375971636871,257.39256766065523L415.5673667992329,257.51900458073516L415.83482836858957,257.67269106287495L416.4799921889335,257.77756535349874L416.5316239005832,257.9123788171735L416.86699745102885,258.0133641719085L417.26191027256596,258.1771168621585L419.3453196102158,258.22832722139316L419.7909338422919,258.3014580305173L420.41423558653185,258.3369551141001L420.95613598357625,258.43477348837735L421.06032970798657,258.5667175323649L422.1669228792902,258.72495520760367L423.2777024055925,258.78329102560406L424.8094431845345,258.89977307490415L424.8764248645125,258.9813497997544L425.27366343882665,259.03929778516346L426.27466743405387,259.2190390805789L426.5458502078538,259.2224308660709L427.3989363264628,259.3225856649069L428.7436865821328,259.4789143346013L430.28100916773957,259.58143549575595L430.7070870764887,259.6998556445061L431.30759644351394,259.7618283429076L431.5750580128706,259.87092188681163L432.4127941631514,259.92665963103184L432.5318727053346,260.0499288373155L433.11796240514224,260.16789385980275L433.7612656232646,260.2727090114789L435.2232338188961,260.3565851632648L439.02258355542756,260.4465061955959L439.3426071375448,260.49747731061234L439.7877562190654,260.5774732999902L439.9352089451282,260.6083160344871L440.1282464256204,260.69883830370173L440.7985283759561,260.8021380777866L441.18413818638516,260.8641632115798L441.6288221173504,260.9492237637302L441.8958185361517,261.0235070725292L442.2888707554672,261.1044812770245L442.318640391013,261.20185924608546L442.41492655598137,261.28096678073643L442.5191202803917,261.39687966271646L442.7233213742135,261.52228596640475L442.8116999797401,261.5847712686455L443.1010236252008,261.69888660294697L443.20800825294344,261.7673841147488L444.12761090097507,261.9054310016816L444.17226535429376,262.0548203147549L444.6104371774834,262.172605735137L444.78672923798115,262.2303965226697L445.64493201269966,262.32163992006656L446.4235940424442,262.399527054159L446.7645493995546,262.455884978659L448.9535479132809,262.55675448021685L449.907106551857,262.65974360857L451.35744598360344,262.75375713104785L452.4031044321493,262.7764235697659L454.64885131363485,262.849722393549L455.06609136183135,262.93912200561317L455.2521515839925,263.07807195294026L456.20664052367937,263.17623451311954L456.84343163402605,263.27712904969667L457.30067462998716,263.35843545417185L457.4462667538283,263.4203067437554L460.30601236844575,263.4897392207366L460.6772025116573,263.5840189795216L461.3670207853199,263.7563084222687L461.48516902639227,263.86956675318316L461.70797614243025,263.9871872381053L462.2554583461396,264.06190757898236L463.14017470251605,264.162995625196L465.0040329780157,264.26992822582554L465.0184526452332,264.3816581074525L466.46088451753775,264.4519919319994L467.65771689658965,264.5537155008757L467.9977419525892,264.6361580128321L468.88152800785485,264.7896020094447L469.5718114320728,264.9014523386117L469.9797484691612,264.9767777375881L470.4248975506819,265.057148297997L473.540475970771,265.1428251130134L473.9074797589839,265.2049758079221L473.9674841806309,265.2872861861776L475.09175307303985,265.365346479201L475.51038857290257,265.4548204778847L476.00112240885267,265.53894296471947L477.27237887676904,265.6977800862637L477.6807810644128,265.79756463598767L478.1352331570415,265.94739446006656L478.3882750591807,266.05182310954746L479.3292746327609,266.12728483235855L479.46370314327237,266.1575332667772L480.61122956345145,266.25120875317344L481.5108307376008,266.3151978776145L482.2820503584589,266.4032375908508L482.5281150022671,266.48861442235443L483.08117901264126,266.5346079903677L483.15653340261656,266.68388914548876L483.74773975853367,266.76755432976825L483.85984104238577,266.8190173634698L484.1352101711844,266.9033466209223L486.10605307442677,266.9790061775183L486.16559234551835,267.1127084756715L486.6037641687079,267.1612992627286L486.71586545256,267.2312827499585L488.3787786881257,267.3283022452796L488.42994524921994,267.4513628222041L488.45971488476573,267.49065166258936L488.48994967086696,267.5370414202911L489.53932932385607,267.59215962219395L489.7853939676643,267.6364206743132L489.86726046541514,267.68262662360854L491.19340469886896,267.7852534207245L491.3050408321658,267.9148576088695L491.46086626822574,267.9848018274615L491.57296755207784,268.07688579158423L492.4539627040111,268.154386198662L494.1410637684576,268.19162732116683L495.33184919028923,268.311740690079L495.5048851968992,268.39986522648326L495.84025874734465,268.47462365251215L496.04957649727595,268.5539965242224L496.7017175759509,268.6592119671949L497.6845806995174,268.7622360040161L498.04228147662235,268.7871349438681L499.74147645550937,268.86013013017816L500.53176724913897,268.92175194429035L500.55455962635375,268.9667962022818L500.7485274079568,269.0185569743567L500.9811026856583,269.0612607461829L502.3388771568795,269.16508685354523L502.37608920131174,269.2336829248858L502.4393496768466,269.27110848292205L503.66036988477936,269.3256281312124L504.05342210409486,269.41411238564365L504.26785651013563,269.48137269299764L505.5386478274965,269.526784639163L506.5489548338318,269.6327302731181L508.1532590994166,269.6624128884422L508.40071919489094,269.6657397309092L508.7123700670109,269.6945758658243L509.1068177379927,269.80137090985994L509.6677893078086,269.8708335923996L509.77477393555137,269.9168314862517L509.8291965505335,269.9632356556663L510.43807862755597,270.02224092423876L511.80608641099604,270.0994114139504L512.0595934636907,270.15084484337615L513.4536496782333,270.2451694090067L513.8122807564491,270.2860436995303L515.7896357674672,270.3475606348924L515.8338250702304,270.40932648387616L517.0669391926037,270.488233678115L517.1785753259004,270.6109143398209L517.4465020458125,270.70808268183123L519.2810558363218,270.7579745501102L523.3948473483057,270.8437311986521L523.7785965565131,270.92880362549215L524.4921375085012,270.90053881587414L525.3717372087682,270.9317676973468L525.7954893647404,271.0009171808954L526.017831330223,271.1496182984006L526.6257831061347,271.2438134985368L526.8364963077322,271.30155469064096L526.964412710468,271.3696626879226L527.15140323374,271.39760034465314L527.8072655168583,271.46858705135185L528.9696767548102,271.51513038621704L529.0924765014365,271.5808403484555L529.1366658041999,271.6057943505464L530.8340001808652,271.6647234916018L531.1875146029715,271.6799266798529L532.0922324332304,271.712228776701L533.5276870472039,271.8252633321185L533.646765589387,271.9585163043407L533.8705030065358,272.0356612570124L534.3686792513724,272.1295750113094L534.4719426746719,272.1384552285517L536.4548794923547,272.2230344691517L537.0335267832761,272.2959776341627L537.7256708097157,272.42511149835286L537.7703252630344,272.48768617020903L537.9340582585362,272.5142479382721L538.6285280377529,272.5342775749676L539.9797904011984,272.67864891931043L540.1970157105717,272.8223493518138L540.9133475658922,272.8632031678323L541.4719933829311,272.93139128163097L543.0032690113178,273.0216921890953L544.9559710428994,273.15240477174257L545.5955530565784,273.20189499857975L546.1253595391825,273.2610079631157L546.8565762122759,273.32103143359893L546.9463502694687,273.32513999019915L547.1547377182892,273.4390635794402L547.3412630910058,273.48548514463727L548.0775964202087,273.5215152718263L549.1623275154085,273.5794028170635L552.6435142720442,273.652835943975L553.2384418324045,273.72875580894606L555.4762811544483,273.8228044408305L555.7065306793728,273.91162167749025L555.7660699504643,273.9699862337004L558.1397332346857,274.0606995847596L559.3240065487417,274.0825598348856L560.7799277871529,274.15849665537485L561.8037241595949,274.2105305680834L562.3242276310908,274.28488804579274L562.3316700399773,274.38355444558704L562.9540414831065,274.4245272663924L563.7043293289714,274.52565537009167L564.1285466354989,274.5402119225079L564.9500025163405,274.5980156158404L565.5733042605805,274.6365738600453L566.4854644997257,274.6845260236513L567.2524977655853,274.773155532201L567.3785535660994,274.86299072620034L567.6088030910239,274.92941285611727L567.9348736303614,275.0210635832252L568.3456015707823,275.0482439780521L570.4718047595292,275.1613406589165L570.5476243000599,275.26372735289993L570.5625091178327,275.3322919446937L571.7830641752101,275.3870808380005L573.2827095658294,275.40897606542984L574.0329974116943,275.4898963594531L574.1139336083344,275.54877786900136L574.5869917231793,275.62126711064656L576.0047706160475,275.68241449509344L576.2196701726436,275.762865793782L576.3592153392646,275.85473366703275L576.7890144524569,275.92055916306526L576.9801913307275,276.0046512190389L577.5369765455448,276.0753510392126L577.766760919914,276.1296851876454L578.1077162770243,276.171118295902L578.6607802873984,276.20220202921155L578.9724311595185,276.3520683821169L579.4626998449131,276.37378949592784L580.1078636652571,276.40587089022506L580.9311801483203,276.4904477543964L581.2400401171079,276.5628454999925L582.0856838268304,276.64129778209025L583.9369830373342,276.6970564563294L585.6896703300927,276.73577743401137L586.5348488892598,276.7448426777904L587.5739952300302,276.80754542094644L588.7745488135251,276.85785309574084L588.9829362623457,276.97683006490445L589.3899429983234,277.04434460857584L592.5036608161907,277.1138664010168L592.7562375677745,277.1562731892365L593.0478869660122,277.2102553844313L594.5168324199748,277.22431453082015L597.3226205701656,277.28495593829757L598.7217934408176,277.3001140106288L598.729235849704,277.3664306312172L598.8557568007736,277.3824023810567L599.2929983228524,277.43319716714416L599.5744144088712,277.5065607379192L599.9525818104138,277.496291879581L600.5693714468782,277.5771890984239L601.1480187377995,277.6386800681696L602.8146531778083,277.7381371538631L603.6686695975282,277.8226581579661L604.1068414207177,277.9172224462876L605.5381096796928,277.9941056732842L605.5455520885791,278.04431407886284L605.6423034041029,278.03267960105165L606.6898224548704,278.1076818139002L607.061012598082,278.13988075731567L607.646171996779,278.18898876442296L607.8015322822836,278.22163411986264L608.877890667486,278.3006382256965L609.1816339801642,278.38553469890917L609.3821138695429,278.4774816623179L609.630504266128,278.51658192891813L610.2170591164912,278.63309374116295L611.0850300528731,278.7339865452272L615.1913791559705,278.78712511248386L615.2211487915163,278.8341146189544L615.4509331658853,278.84790578309503L615.7174644341312,278.9268014428577L616.0960969862292,279.00308161012595L616.6603246099331,279.0965462446803L618.5841873070797,279.20523355673686L619.1930693841022,279.1749790360607L621.3127604650736,279.24966481405306L621.6276673910813,279.24417856331354L622.4733111008039,279.3303880295697L623.4324515460448,279.3599269407155L623.6250238759817,279.45715108223436L624.4883433068096,279.48694649812194L625.0297785532987,279.58600653469176L625.6307530708792,279.65496683328894L626.0456673662987,279.6873816751211L626.4354635317264,279.7107025106167L626.5991965272283,279.739800496545L626.9145686037915,279.79796239923553L627.1001636753973,279.883394241433L627.1224909020566,279.96674278735577L628.2881581938964,280.006460316537L628.8700615387055,280.001349695306L629.0258869747655,280.04599888985257L629.0337945342075,280.11554862173375L629.0486793519804,280.18464276424584L629.8045490045101,280.21823144548114L629.8268762311695,280.2574002429176L630.124107436072,280.3185252983684L630.972542049127,280.3541732184049L632.1977486120584,280.4445462066881L633.3159705472472,280.52489850893335L633.8727557620645,280.553364392531L634.3979107391144,280.6266505298997L635.6607944970335,280.68342544723134L636.6948241816943,280.7433068009019L639.912735723972,280.7936369233762L640.2188047894272,280.86447149275705L640.2560168338595,280.89871669397814L640.6072055031887,280.92354058629195L640.9928153136177,281.01258357388906L641.0523545847093,281.0774983222306L641.2230648385422,281.1202815803403L641.9393966938627,281.19297747572193L643.2548424645423,281.1991316023962L643.3069393267475,281.25237961530615L644.8675194401244,281.3389453253283L648.2938184312227,281.3909266082842L648.5612800005794,281.39895401934075L649.2952875770053,281.41873238616364L650.4083928560846,281.44787081198547L650.6381772304536,281.5212539555392L652.8853195636054,281.58418400310194L653.018817773006,281.63037307649347L653.6123498817002,281.68029480227375L654.076104985437,281.7548121870767L654.5812584886046,281.7942779577804L656.2999897908186,281.8518095181161L656.3148746085915,281.86820242138566L657.3256467654821,281.89022451007617L657.6447400464886,281.9375971311216L658.5280609511988,281.99103820298615L660.1160849473445,282.0077350049019L660.4947174994425,282.086477211439L661.5640986263139,282.1754556473809L661.9129615428661,282.22725859548683L662.1506534766771,282.2607001811738L662.7813976298035,282.30314911003063L663.6423913078545,282.3547540873803L663.6935578689487,282.3762663668201L663.7754243666997,282.4277960253568L664.9810946063042,282.52535411539L665.9095351148885,282.5506793015526L666.850999839024,282.5944362874864L667.4287168288346,282.67888303629775L667.8594462431377,282.7067256685551L668.3836709190768,282.7591611059513L669.2228025210238,282.81434372181013L670.4033546306365,282.8695457871096L670.722447911643,282.9655134865184L671.1387576587287,283.04566477015715L672.6388681999033,283.0638448198553L672.9500539214678,283.108222416441L673.4919543185122,283.1541955684764L673.92221858226,283.1697475227518L677.7099395549063,283.2239893396551L678.2136976064078,283.3354116744788L678.8114160701006,283.3705219196732L678.9156097945108,283.41002277963423L679.056550412798,283.45986317844057L679.2044682894161,283.5112555082663L679.5133282582036,283.59008807958935L680.3380401929331,283.66534626517307L681.7720993552405,283.7291864608869L682.2879513211823,283.8113167882485L682.5847173755295,283.83460822362156L683.9183040178698,283.87242634825304L684.0890142717027,283.93008533222036L684.6537070459618,283.9778357975088L685.5156310251235,284.03209573882066L685.7012260967293,284.11841335409895L686.6766468114093,284.1763152595747L686.7287436736145,284.2351466879156L686.898988776892,284.2644296254143L687.2148260040105,284.338159803561L687.2445956395563,284.3909111985827L687.7264916149538,284.45439306564106L688.2107133431283,284.48449512231133L689.590815041009,284.5257538767267L689.8796735359142,284.5587075607754L689.9987520780974,284.60968333785144L691.0681332049688,284.6713472008693L691.261170685461,284.726451650378L691.5360746637042,284.79027893853254L691.8026059319501,284.90514906398647L692.739884301087,284.9499333067197L693.1468910370646,284.9871270584062L693.4362146825254,285.0298101398012L693.4510995002983,285.04966713903355L694.036258898995,285.1263840123212L694.4069838916513,285.15095410428916L694.619092544915,285.1688498191942L695.3805440041098,285.14174283226924L697.342083896244,285.18340855308776L698.1821457993018,285.19191881594634L698.4412346586612,285.2482413813572L700.3050929341609,285.339915577562L701.5879781659622,285.42952918382724L702.6131699900704,285.44691821006194L703.8751234468787,285.4952015476842L705.0477679970495,285.5420942352814L705.2189434014379,285.5741903316606L705.6343228474127,285.65853423436624L705.9241116434288,285.75262855781546L706.8534824531239,285.7756483989126L707.1628075724668,285.8398555361273L707.5112053384637,285.88957735693396L707.7633169394921,285.94421143231415L708.2159084298992,285.97685854125143L708.3489414887445,285.9930364963365L708.4526700625993,286.04218219336485L708.904796402451,286.0890038671436L710.1067454376123,286.13841162623817L710.4928203985968,286.1958636201575L711.5324318899223,286.227624617791L713.340937249329,286.2661612269976L715.2238666976002,286.3349663895905L716.4220945283183,286.39475425632514L716.5997820404823,286.44538231573205L716.785377112088,286.4977111940378L718.2980467182585,286.51228617294214L718.5357386520694,286.58421523813456L718.595277923161,286.67723846359206L718.9697241202604,286.74140087357495L720.0265461821359,286.77978734271005L720.1377171648772,286.86771453648504L720.3447091620316,286.9156982043046L720.6265903986057,286.9612594109984L721.5624733160765,286.96415880381227L722.1936826197583,287.00631436361846L722.5941772479604,287.09306515327904L723.1728245388816,287.1325963584788L724.2394147624207,287.15386307172025L724.7566621800287,287.22602493279237L724.8757407222118,287.306743978012L724.9948192643951,287.37391883432406L725.2692580920827,287.4232459646867L725.8627902007769,287.4290779825251L726.4149239100403,287.5209065988003L726.6368007249675,287.56946955293614L726.9856636415197,287.6448236490014L728.3811153077286,287.6691212226596L728.6188072415396,287.74058715029594L728.8630112831261,287.83691460454486L729.3374648496372,287.9138772901767L729.6272536456531,287.92747194937823L729.7081898422932,287.9155866417214L730.1770616021395,287.94874310038966L731.9269579915655,288.00697832269464L732.2134907336937,288.0680529523432L732.7102715268641,288.1284584129737L734.3550438907689,288.16113959295626L735.4895460953968,288.2252949218873L736.644049773907,288.26569677313853L736.9045340849326,288.31158103408836L736.9570960976932,288.3467641272083L737.9390289201488,288.4250605605202L738.0353150851173,288.48540035276847L738.3758052916722,288.52225310452536L738.5693079227199,288.5447643255669L738.9702677014773,288.563668417306L739.7033449767922,288.5984719913411L742.5682072475191,288.62805013909224L742.9947503068237,288.6784532193389L743.7827153476763,288.7394495930297L744.2646113230738,288.7597782324403L744.6009151746301,288.81132269608906L745.7251840670391,288.82263497201035L745.8144929736765,288.8738655027599L747.3704215814994,288.94511946280477L747.8718538802237,288.988767670748L748.1021034051482,289.0174270022077L748.198854720672,289.04995926537L749.9645662289818,289.08526057759263L750.4613470221522,289.12450330167997L752.1991494971376,289.1314411993334L752.2065919060241,289.17211279641015L752.8824556630245,289.21697644982214L753.2475988490158,289.30315059779366L754.0420759976441,289.37412229546504L755.873838884821,289.4622071655114L756.6394766990143,289.5072741026599L757.2706860026962,289.5052296421728L757.3897645448793,289.5261886164109L760.2322995889468,289.5906475088372L760.3597508411273,289.6284078241501L761.2077203036268,289.68923081769293L761.348660921914,289.71917222728814L761.9501005900499,289.8131274272381L762.3989708760139,289.89213628252605L762.4357177698907,289.9675167884868L762.4803722232094,290.00317570363705L763.9790873127178,290.05407260550135L764.4912180742164,290.0828352629707L764.5875042391848,290.0968863796355L765.0917274412417,290.12969109529547L765.5592037494216,290.1450980229465L767.1300171750174,290.17553016235496L767.7007569064968,290.2174849411117L769.0608571304952,290.25747667567316L769.7841662441468,290.3151934781142L769.941387131873,290.34046365380703L770.2762955317631,290.43002006357676L770.4246785589366,290.47816451180853L771.9540935851016,290.5110048544008L772.683914806529,290.5732018249768L773.0318474219703,290.6347411349177L773.2472121291219,290.6746728509663L774.363573462089,290.7190598938662L774.5119564892626,290.7658911261883L774.5342837159219,290.8158852648554L774.9208238274617,290.8710973501061" fill="none"></path></g></g></g></g><g opacity="0.2"><g><g><g><path style="fill: none;" stroke="rgb(255, 112, 67)" stroke-width="2px" d="M87.83530967785319,-11.216116189956608L88.18696349773784,33.18710303306585L88.28185421104004,16.789646208286342L88.77119259532397,-6.900162935256901L89.47217448231623,45.056143462657985L91.05275606957552,74.39993923902517L91.43464467556134,90.42209333181387L93.26873331551525,73.39394992589956L93.4017663743605,67.39873802661901L93.4320011604617,93.39077568054205L93.81854127200157,114.7151581048966L93.87017298365129,137.27049744129184L94.19345261965636,80.06688094139105L96.0656836051533,124.18931311368945L96.38431173560434,119.07955205440527L96.40663896226367,134.63014161586764L97.5062548752363,137.0789313912392L97.79883457458476,140.53737169504168L98.73983414816496,154.02478194236758L99.18684383190723,168.7158308029175L99.94410893610325,147.26629114151004L100.4060034376184,137.48082017898562L100.7348648802883,104.3569040894509L101.33676969897974,129.77294808626178L101.68005080886712,160.67146486043933L102.03868188708282,186.0745537877083L102.04565914541385,171.13972431421283L102.13403775094042,160.4114059209824L102.3833584486364,185.3178650736809L103.50716219048998,154.63643020391467L103.90812196924733,159.0064004659653L106.19666270182995,153.5303488969803L107.61862794969682,182.2248140573502L107.73631104021376,215.35762971639636L108.17308741173716,140.07667815685275L110.52674922207616,233.51100540161136L110.54116888929366,181.5079481005669L110.93282565694297,175.30049836635592L111.45612003177129,198.55845308303836L112.02965066658314,201.13679355382922L112.08918993767475,202.62116289138797L112.91018066796097,161.7917967438698L113.11577721344908,220.32240664958957L113.77443039989967,208.03148156404498L114.9531219072908,154.6489909887314L115.84807157588611,199.4934148192406L116.46579151346126,211.65343737602237L117.14212042101717,229.79892736673358L117.26771107097598,235.02821302413943L118.49105703168578,198.88599103689197L118.55013115222195,202.25368952751163L119.37437793639602,244.6631798744202L120.73540846150509,213.88784891366961L121.81502290059538,210.9070563912392L122.0229451988605,220.94272917509082L123.60910859278462,214.8999778032303L123.7146977688611,205.88854408264163L125.14503572672523,213.67487883567813L126.1613896902807,219.4470382332802L126.49490263850463,224.16099375486377L127.13681040496074,197.80390477180484L127.55684135648961,209.64190936088565L127.60893821869473,178.02309072017673L127.88244674527168,191.21889925003055L128.50016668284684,214.02635550498965L130.14959055230574,247.13320469856265L130.29099632114824,220.76862430572513L130.80870888931176,244.25622171163562L132.92886512083848,223.0695009827614L133.14422982799007,229.7636670470238L133.86381773719845,249.69532316923144L133.95498724605744,235.13354337215426L135.04111379292337,219.6347740888596L135.86815148042984,243.67955213785174L137.0384702778237,225.30931985378268L137.34546964438968,230.2887416481972L139.07815546326572,254.67716699838638L139.65912850696404,234.45734506845477L139.68145573362335,230.87718343734744L140.03450500517422,204.8077533245087L142.07791139505946,220.6544507145882L142.15140518281314,253.3164340853691L142.40956374106176,225.08249348402026L143.5719749790138,254.66162091493607L144.19434642214296,245.74104166030887L145.0334780240899,242.37047052383426L145.33489558399106,268.72710889577866L146.38427523698013,251.48030644655228L146.48707350972418,251.9727680683136L147.37690652221008,192.4809483289719L147.45086546051914,259.05530458688736L148.13324132529527,253.8007847070694L150.19385828573044,253.1241357922554L150.56876963338524,214.23020070791247L150.62226194725656,238.05085605382922L151.05392166267052,250.2999306321144L153.12477193532456,260.9048379063606L154.6844217475907,239.0973440408707L155.32214315904815,254.12229573726654L155.4230808295706,279.3056554198265L156.26035182929596,229.46958696842196L156.39571064091822,204.245165348053L157.4757902305639,238.36493200063708L157.95163924874112,247.7429378628731L160.7983606478073,252.09995305538177L160.84999235945705,256.05293905735016L161.72075419917138,272.3653430342674L162.31103025397775,228.62790173292163L162.62826293276257,240.18033152818683L163.26365859144303,249.3858096599579L164.39723049496007,254.2321885228157L164.40467290384652,248.73698598146441L164.57770891045638,244.98508518934253L165.10007298417395,253.25875586271286L165.49870701015428,257.1590766906738L165.52335998959063,247.05682611465457L165.99316205054765,226.69731473922732L166.05223617108382,276.9406793117523L166.49459434927203,205.7404056787491L167.10998853407017,256.2042317390442L169.45899883885514,251.5714988708496L169.85670256372467,238.9744961857796L170.00369013923202,243.1789795160294L170.2976652902467,214.63096296787265L170.55582384849535,246.81535488367084L171.43402809709616,274.7959957122803L171.98476635469325,249.34655016660693L173.56581309250797,274.46924632787704L173.60255998638476,290.44329768419266L174.88125886318755,268.4112305045128L175.07290089201356,260.8300364613533L175.99994594893167,254.3139744400978L178.8061992496778,282.2492725253105L180.35654605083587,277.07879161834717L180.813789046797,254.8553273677826L181.5845435170997,280.68565195798874L181.78362795481218,279.94450932741165L182.02643654473255,283.3443138599396L182.13714237691843,260.42578196525574L184.30009245954224,253.20755517482758L185.36203117752723,243.67594724893573L185.73740767573742,260.76700723171234L185.90625732734867,268.20518857240677L187.32403622021693,246.49395650625232L187.87151842392623,258.3743748664856L189.39488649287094,288.85438656806946L190.44287069419383,260.0140360593796L190.99128319901394,244.23217034339908L191.18385552895074,285.52087819576263L191.31735373835141,252.6737499833107L191.75738616376262,233.42375582456592L192.13322781252822,236.19952028989795L193.57054302872336,247.19910657405856L193.792884994206,297.88646391034126L193.95801344137405,296.7006807625294L194.64457566114885,299.97161051630974L194.8715691321855,264.173063993454L195.3488136020289,276.45204788446426L195.49114967198224,268.2385337948799L197.0521949359146,260.7363656759262L198.8420942731052,270.06232595443726L200.00729641438966,235.97821390628818L200.02218123216255,243.86734431982043L200.25894286486266,254.89886766672134L201.99860594206976,281.3846624493599L202.17629345423367,275.5731309056282L204.86951517001685,250.29649472236633L205.8654025091346,277.864375770092L206.4119544117331,273.5995668768883L209.34705441632585,274.66644501686096L210.19269812604844,225.2474734783173L210.55505040870736,278.89531767368317L210.86902703360437,248.35650122165683L212.19842732094602,268.81469643116L212.45426012641767,278.6202195882797L213.9604176248125,267.21502697467804L214.1478732986399,265.9512881040573L214.3120714446971,275.2437341809273L215.82753195419994,270.40349489450455L215.93172567861026,266.12601256370544L216.14662523520644,253.4667128920555L216.20662965685338,250.5606654882431L218.86822113486917,281.6945139169693L219.4208199946879,279.67391735315323L219.76968291124012,242.75844669342044L222.68012993639647,281.1099023222923L226.44226762849567,263.43304789066315L227.68421961142167,274.37692737579346L228.07680668018173,265.52078551054L228.83174603160077,307.16119533777237L230.7704935465203,253.87000983953476L231.57892521181066,262.7160692811012L231.68218863511015,272.26818001270294L232.25385866770037,258.00819700956345L233.1060144851986,284.1659187376499L233.78839034997478,268.58347660303116L234.2177243126117,273.3135977983475L234.58426295026922,269.70251297950745L234.7177611596699,289.74690636992455L234.7838125385371,282.7085015773773L235.34850531279633,286.6738230586052L236.16158848364068,297.3333950936794L236.22066260417688,282.7429170012474L236.75372514066868,280.30111169815063L237.6212309264952,282.323567032814L237.95474387471916,240.23575669527057L238.35523850292108,285.4917856156826L238.36268091180756,269.8512146472931L238.525948756754,277.08532547950745L238.64456214838174,289.0184653401375L240.1395560334469,271.09473234415054L240.1618832601062,265.7184348106384L240.52516584387598,272.67085736989975L240.70285335603987,295.0545701980591L242.44251643324696,266.11812686920166L242.9165048492026,305.3617080152035L243.39979627626627,288.5133866071701L243.57422773454243,280.70868945121765L244.21846125377547,294.36871191859245L244.75338439248895,296.89740067720413L245.7353172149446,288.27335169911385L246.9093572167817,283.790869474411L247.94896870810732,276.90941816568375L248.14944859748596,258.104289829731L249.39977329040914,276.5764728784561L251.19571958482007,245.04180586338046L251.54458250137225,290.2967927455902L251.82646373794643,278.1700590848923L252.03438603621157,272.54310911893845L252.87956459537878,253.16311365365982L255.05553889355383,271.8052897453308L255.6118589578158,262.5374019742012L257.89667848595514,304.63833636045456L257.97110257481967,286.79740315675735L258.29717311415715,302.0633473098278L258.49021059464934,300.73325595259666L258.8232583923179,292.6538831591606L258.9939686461508,264.6036792397499L259.55121901152353,274.58820766210556L260.0405573958074,286.955201536417L260.879223847199,299.910778015852L261.84394609910476,288.1271565556526L261.9253474463003,289.5995565354824L262.07280017236303,298.4028642475605L263.86176920844287,271.65619379282L264.9818517458532,249.28115522861484L265.2711753913139,291.36730393767357L265.48607494791,274.1945425271988L266.4935910509128,269.4808123111725L266.5084758686857,267.27118438482285L266.79175255692616,287.2451134622097L266.96944006909007,279.74995797872543L269.0402903417441,311.4596310853958L269.77243731594837,276.94259440898895L269.83244173759533,310.0893790125847L271.1637026271586,280.2203959822655L271.4093021204114,291.21781370043755L272.0381856713162,296.6509727239609L272.33727747844034,283.96289026737213L272.9782549437856,281.2322995662689L273.8829727740444,262.7061558365822L274.4918548510669,278.96645790338516L274.9421205886969,303.1893399953842L277.2278704179471,283.3347383737564L278.184685110411,284.88146102428436L278.4563330347664,271.0263521075249L279.00614099125266,300.09502163529396L280.16436587420606,282.64102256298065L280.3560079030321,272.4284285902977L280.83418267398633,290.2889352142811L280.9393066995074,268.0218461751938L281.9449622002886,290.9458135664463L282.6887379383779,289.05882319808006L283.1859838821037,278.9627403616905L285.6108137274194,291.6341502070427L285.6182561363059,314.6981450021267L285.84804051067493,246.39915919303897L288.244496172111,283.0058485865593L288.2882203243189,292.9595664739609L288.3328747776375,289.4227479994297L288.3626444131833,304.32913264632225L288.3700868220698,295.4532483816147L289.22503354290046,277.8602639436722L290.9372527373388,302.1413875222206L291.7000996481996,296.659731477499L291.82662059926923,281.23370772600174L291.9601188086699,268.4908196926117L293.34673261432613,256.18282771110535L294.02585242521445,282.79518789052963L294.2784291767983,275.38945055007935L294.41146223564357,276.27704179286957L296.5888319854848,280.39574003219604L297.1074748547592,281.066981613636L297.9828882000275,317.9419254362583L298.0787092144405,282.0237416625023L298.7657365847707,286.86789563298225L298.9797058402561,291.79070940613747L299.26949463627216,280.20879274606705L301.9338770176204,304.0940544605255L302.1264493475571,278.6430317759514L302.501360695212,247.37236654758456L302.68649061626235,296.8723072707653L303.72238090314477,275.7818201780319L304.18101935077203,307.0188303887844L305.7532282280341,280.2642742395401L305.87184161966184,300.1499961912632L306.4211844255928,293.6848532259464L306.7923745688043,295.3058703839779L307.80082097291796,304.37678477168083L308.4087727488296,265.1335979104042L309.7837577906009,300.7517591714859L309.97679527109307,294.32818508148193L310.42985191205554,253.34324544668198L311.038733989078,318.44477927684784L311.5503996000213,301.63126757740974L311.85414291269944,296.69102078676224L312.17323619370586,300.8298838734627L313.160285672271,300.19204384088516L313.2426173205773,296.985269844532L314.29664847912034,296.4387067258358L314.99483946278025,294.680027872324L315.09810288607974,279.27185958623886L315.2320662460358,277.78366005420685L320.31383606381314,296.66725105047226L320.58780974094554,316.72792276740074L322.47259979143837,301.8734428882599L323.3038238339435,310.90115493535995L323.7861849598964,257.82175666093826L323.8387469726569,272.7540514469147L324.25319611752093,298.70164757966995L324.3257596041638,270.9101507663727L324.8341691612193,290.1212797164917L324.93045532618765,269.8336971402168L326.0947271663613,289.3068282902241L326.33846605739245,274.58556032180786L328.03068377794847,286.691622197628L328.82423062546593,324.7380422651768L329.6796424968519,288.8883232176304L330.0433902311771,282.9020953774452L330.4587696771519,275.1015100479126L331.44488885460623,287.24533876776695L331.5048932762532,304.1169793009758L332.5789259086786,297.8695096671581L333.4603862111673,291.66290482878685L333.6599357994352,279.9575770497322L333.67482061720807,288.17080950737L334.34417226643296,307.2560771405697L334.8623499851518,314.93218114972115L335.1144615861802,293.9164955019951L335.32191873388996,271.7376980781555L337.0136713038905,282.462242603302L337.73372436365435,286.06980702281L337.8007060436324,296.88222071528435L337.88954979971436,285.3450553715229L338.0304904180014,290.81893837451935L338.15654621851564,299.63030076026917L338.55750599727304,265.92188572883606L338.651001258909,271.09473234415054L338.8365963305148,296.8999916911125L339.11150030875797,310.6618241071701L339.9538879645927,299.6484660208225L340.09482858287976,290.0070779621601L340.87442091373515,269.53190034627914L342.51407662153065,316.99186822772026L342.67036720814605,298.36312597990036L343.0773739441236,281.10336846113205L343.7239332161338,288.0929664373398L344.2751366242863,291.9480571746826L345.6389580527278,283.24568635225296L348.20426336577515,309.25039744377136L348.66476241562407,314.00144389271736L349.8220569974667,284.76855477690697L349.97741728297126,300.0279087424278L350.03695655406284,306.43413430452347L350.1476623862487,272.48655742406845L350.93841833043376,277.30764573812485L351.60637452799244,296.2355656027794L353.0795063369536,316.8465179800987L353.13206834971425,306.57771027088165L353.6586187784303,293.524660974741L354.43030354984387,292.74997597932816L354.5568245009135,302.8528461456299L355.12384302794965,269.7858760356903L356.67744588299564,295.95046958327293L356.7960592746233,296.3663554787636L356.89234543959174,289.88414561748505L359.5218415292847,313.3461990058422L359.74464864532274,304.2055525481701L359.8851241130545,290.1258703172207L360.57308178449546,295.02663230895996L360.9647385521447,338.79837638139725L361.19684867929084,280.2184245586395L361.6201356847075,286.66655695438385L362.7746393632177,290.99324038624763L363.63470274015776,293.4029114842415L363.87937193229976,276.7252871990204L365.75625442335075,287.33396834135056L366.0092963254899,304.452909886837L368.05177241426435,304.9093507826328L368.8820661556587,318.7216798067093L371.3017793448649,302.5756358206272L371.70878608084246,325.339270144701L371.8199570635838,272.36066794395447L373.1381937375959,312.3269166648388L373.25680712922355,301.61144068837166L373.33774332586364,289.49760577082634L374.2080400150226,283.23143577575684L374.67039966709325,277.9239690899849L375.1062457375058,303.6482592523098L375.2546287646793,296.2419586479664L376.14632237938685,281.1379528641701L377.1924459784881,283.2812846302986L377.44176667618405,303.91152879595757L378.4520736825193,305.917424172163L379.1688706883953,312.5521940588951L379.6070425115849,303.5603900849819L379.687978708225,276.9203454852104L382.6193575083745,293.3995600640774L382.82727980663964,288.3729930818081L383.2049820576268,293.48013496398926L383.92829117127843,329.08300361037254L384.15807554564753,297.13566130399704L384.19482243952433,298.3748981952667L385.05116461202124,302.18323802948L387.1034088624591,299.3789160847664L388.6463132547308,289.62191811203957L389.74406856548177,288.5161747634411L389.86314710766493,269.8423150777817L389.89245159265533,282.55394196510315L390.13712078479733,294.8334046304226L390.2403842080967,289.6894252896309L390.2850386614154,303.21294075250626L390.8264739079045,291.9527885913849L392.73545178727824,305.73444789648056L393.39270952206266,312.3498415052891L394.2527728990027,284.4789526462555L394.4537179389368,292.2809742987156L394.97329110932196,300.3108643591404L395.4770491608233,309.96455973386765L396.08918729173365,306.00343456864357L396.4450274666169,274.10064643621445L396.56410600880014,316.81100419163704L398.91218601247425,329.20610493421555L400.03552460377244,278.70775079727173L400.9355909284771,292.0895772278309L401.7756528315349,282.9612380862236L402.47989077241505,301.02975806593895L403.3120451160309,302.97262421250343L403.44554332543163,281.87954610586166L405.0024022343653,311.14899104833603L405.73594466023576,264.553267121315L407.1309311758893,305.590083360672L407.2574521269589,303.7875544130802L407.6230604635056,303.131577283144L409.538550450655,283.9334597289562L411.3191467767376,300.8390932381153L411.57916593720785,304.3928659558296L411.978730264299,296.6686310470104L412.21595704755447,302.4225406944752L412.7536710896004,322.7792357504368L412.954150978979,284.7595707178116L412.9839206145248,306.9813451766968L413.450466621594,286.8370569348335L414.75195787561154,311.48402041196823L414.8482440405799,315.2730684578419L415.5375971636871,334.35613936185837L415.5673667992329,305.53291207551956L415.83482836858957,316.1296801865101L416.4799921889335,297.73297449946404L416.5316239005832,309.35744574666023L416.86699745102885,296.6119103729725L417.26191027256596,320.8675462603569L419.3453196102158,277.86505168676376L419.7909338422919,286.38864254951477L420.41423558653185,271.99206805229187L420.95613598357625,296.1238985359669L421.06032970798657,309.4853348135948L422.1669228792902,319.8875797390938L423.2777024055925,281.36720126867294L424.8094431845345,304.0654688179493L424.8764248645125,290.6624355018139L425.27366343882665,281.57932645082474L426.27466743405387,329.2426607608795L426.5458502078538,260.5458698272705L427.3989363264628,298.4629081785679L428.7436865821328,320.6669679880142L430.28100916773957,299.77117305994034L430.7070870764887,306.1940993964672L431.30759644351394,284.1311935186386L431.5750580128706,302.8355821073055L432.4127941631514,281.91176480054855L432.5318727053346,308.74655789136887L433.11796240514224,306.84038838744164L433.7612656232646,301.80573856830597L435.2232338188961,293.643087208271L439.02258355542756,296.18608286976814L439.3426071375448,280.78687047958374L439.7877562190654,292.4684848487377L439.9352089451282,272.9225236773491L440.1282464256204,296.89486598968506L440.7985283759561,302.16924092173576L441.18413818638516,285.739678055048L441.6288221173504,295.114079028368L441.8958185361517,290.90401938557625L442.2888707554672,293.72473230957985L442.318640391013,300.4883769750595L442.41492655598137,293.2435078024864L442.5191202803917,308.2991855442524L442.7233213742135,312.34049132466316L442.8116999797401,286.9426970779896L443.1010236252008,308.0771187543869L443.20800825294344,289.6464200913906L444.12761090097507,318.1733424067497L444.17226535429376,323.03425347805023L444.6104371774834,310.3211902678013L444.78672923798115,285.888351559639L445.64493201269966,299.72797071933746L446.4235940424442,294.3761751651764L446.7645493995546,285.62685629725456L448.9535479132809,304.0874924361706L449.907106551857,305.1236726939678L451.35744598360344,301.57206854224205L452.4031044321493,272.1487117409706L454.64885131363485,293.2007842361927L455.06609136183135,300.00937736034393L455.2521515839925,320.7759595513344L456.20664052367937,303.9947791993618L456.84343163402605,305.2905396223068L457.30067462998716,297.262536495924L457.4462667538283,289.2561345398426L460.30601236844575,292.523290425539L460.6772025116573,303.06235215067863L461.3670207853199,336.0000813603401L461.48516902639227,311.42628586292267L461.70797614243025,313.4436718225479L462.2554583461396,295.52317759394646L463.14017470251605,306.7849068939686L465.0040329780157,309.4178276360035L465.0184526452332,311.6194572150707L466.46088451753775,294.2286563515663L467.65771689658965,307.67815893888474L467.9977419525892,299.63404646515846L468.88152800785485,330.0166698396206L469.5718114320728,312.5117798745632L469.9797484691612,297.08305245637894L470.4248975506819,299.3598777651787L473.540475970771,301.75932562351227L473.9074797589839,291.8024252951145L473.9674841806309,300.55909475684166L475.09175307303985,298.8604316711426L475.51038857290257,303.89843291044235L476.00112240885267,301.7311061024666L477.27237887676904,334.1248913705349L477.6807810644128,308.8414960205555L478.1352331570415,330.6643388271332L478.3882750591807,311.2175684273243L479.3292746327609,298.8074848651886L479.46370314327237,279.2743379473686L480.61122956345145,306.9252159297466L481.5108307376008,294.13549250364304L482.2820503584589,304.7295851111412L482.5281150022671,303.7038533985615L483.08117901264126,286.6088224053383L483.15653340261656,331.9226703643799L483.74773975853367,303.3778925836086L483.85984104238577,289.3671820163727L484.1352101711844,303.8989116847515L486.10605307442677,300.213532358408L486.16559234551835,325.91816461086273L486.6037641687079,288.5598558783531L486.71586545256,298.0899148285389L488.3787786881257,310.162378013134L488.42994524921994,321.85117399692535L488.45971488476573,284.88044714927673L488.48994967086696,288.0956137776375L489.53932932385607,292.0495573282242L489.7853939676643,287.30079209804535L489.86726046541514,288.2367113828659L491.19340469886896,313.49425292015076L491.3050408321658,325.7110806405544L491.46086626822574,299.2146964967251L491.57296755207784,309.24299052357674L492.4539627040111,302.84369310736656L494.1410637684576,284.88134837150574L495.33184919028923,322.2070722877979L495.5048851968992,307.9901789724827L495.84025874734465,302.1012549698353L496.04957649727595,304.29981476068497L496.7017175759509,316.10103821754456L497.6845806995174,315.2724207043648L498.04228147662235,280.04139071702957L499.74147645550937,301.8936922252178L500.53176724913897,296.8420318365097L500.55455962635375,289.4005272388458L500.7485274079568,292.5273740887642L500.9811026856583,288.4798160791397L502.3388771568795,316.43412432074547L502.37608920131174,300.50079694390297L502.4393496768466,286.35056591033936L503.66036988477936,294.2356971502304L504.05342210409486,309.8906031847L504.26785651013563,300.2855456471443L505.5386478274965,290.34931710362434L506.5489548338318,318.2687593102455L508.1532590994166,283.3047164082527L508.40071919489094,271.196570456028L508.7123700670109,282.9789245724678L509.1068177379927,319.05763855576515L509.6677893078086,301.9459349513054L509.77477393555137,291.18153950572014L509.8291965505335,291.4406690597534L510.43807862755597,297.36352971196175L511.80608641099604,305.89925891160965L512.0595934636907,294.0386392772198L513.4536496782333,314.1037889420986L513.8122807564491,289.31341847777367L515.7896357674672,299.017103523016L515.8338250702304,299.2277923822403L517.0669391926037,307.346452832222L517.1785753259004,327.98134392499924L517.4465020458125,316.19955307245255L519.2810558363218,294.1424206495285L523.3948473483057,311.0835679471493L523.7785965565131,310.89264965057373L524.4921375085012,257.60782903432846L525.3717372087682,285.6349672973156L525.7954893647404,303.5944393873215L526.017831330223,341.3181655704975L526.6257831061347,315.7419574856758L526.8364963077322,298.6091033220291L526.964412710468,303.61581525206566L527.15140323374,284.6395391821861L527.8072655168583,305.15225833654404L528.9696767548102,293.62466847896576L529.0924765014365,302.82955518364906L529.1366658041999,283.4858620762825L530.8340001808652,299.75044494867325L531.1875146029715,278.93373227119446L532.0922324332304,287.1411912739277L533.5276870472039,325.8746806383133L533.646765589387,335.745119959116L533.8705030065358,309.0041666328907L534.3686792513724,317.1826457083225L534.4719426746719,276.4031565785408L536.4548794923547,312.8858715891838L537.0335267832761,307.40238493680954L537.7256708097157,334.6420802772045L537.7703252630344,302.6686588525772L537.9340582585362,285.33922559022903L538.6285280377529,282.2156456708908L539.9797904011984,342.53529435396194L540.1970157105717,342.42838686704636L540.9133475658922,292.6731186211109L541.4719933829311,306.03069654107094L543.0032690113178,316.90118274092674L544.9559710428994,336.7360137999058L545.5955530565784,297.3012045621872L546.1253595391825,302.0763868689537L546.8565762122759,302.6109524667263L546.9463502694687,275.332110285759L547.1547377182892,329.1472438573837L547.3412630910058,296.20912036299706L548.0775964202087,291.1768362522125L549.1623275154085,301.9746614098549L552.6435142720442,309.71092200279236L553.2384418324045,311.04647701978683L555.4762811544483,320.09928247332573L555.7065306793728,317.65902614593506L555.7660699504643,302.74731865525246L558.1397332346857,318.8338819742203L559.3240065487417,284.8831226527691L560.7799277871529,311.71518391370773L561.8037241595949,299.97161051630974L562.3242276310908,311.1354445517063L562.3316700399773,323.3309527337551L562.9540414831065,294.77133294939995L563.7043293289714,324.7959457933903L564.1285466354989,281.78350961208344L564.9500025163405,303.38994643092155L565.5733042605805,293.8616899251938L566.4854644997257,298.6174396276474L567.2524977655853,319.0524283647537L567.3785535660994,319.78948733210564L567.6088030910239,308.1801960468292L567.9348736303614,320.94691014289856L568.3456015707823,288.68177434802055L570.4718047595292,331.94624295830727L570.5476243000599,326.72211116552353L570.5625091178327,309.8261094689369L571.7830641752101,302.97772175073624L573.2827095658294,286.44584199786186L574.0329974116943,316.31995072960854L574.1139336083344,305.28780779242516L574.5869917231793,312.26890048384666L576.0047706160475,306.6262354552746L576.2196701726436,316.51514983177185L576.3592153392646,322.4352786540985L576.7890144524569,309.3290009200573L576.9801913307275,318.72525653243065L577.5369765455448,312.0271194577217L577.766760919914,303.7859491109848L578.1077162770243,297.2810115516186L578.6607802873984,292.0543732345104L578.9724311595185,352.85462683439255L579.4626998449131,287.4724186062813L580.1078636652571,292.8138501048088L580.9311801483203,319.78838896751404L581.2400401171079,313.66111984848976L582.0856838268304,316.8802293241024L583.9369830373342,305.32332158088684L585.6896703300927,296.63376501202583L586.5348488892598,281.4076999425888L587.5739952300302,309.09012070298195L588.7745488135251,302.78317040205L588.9829362623457,338.34739914536476L589.3899429983234,311.90224385261536L592.5036608161907,313.04167038202286L592.7562375677745,299.0919049680233L593.0478869660122,305.15946811437607L594.5168324199748,284.5101856291294L597.3226205701656,308.74030566215515L598.7217934408176,285.1700492799282L598.729235849704,311.82924485206604L598.8557568007736,285.6901108324528L599.2929983228524,303.8784370422363L599.5744144088712,315.736859947443L599.9525818104138,272.1402064561844L600.5693714468782,319.8106097280979L601.1480187377995,309.7701492011547L602.8146531778083,329.7557941675186L603.6686695975282,322.0687346756458L604.1068414207177,327.465844810009L605.5381096796928,318.31494694948196L605.5455520885791,304.39956879615784L605.6423034041029,271.92002660036087L606.6898224548704,317.54871091246605L607.061012598082,295.0874084830284L607.646171996779,304.05961087346077L607.8015322822836,295.4349704682827L608.877890667486,319.99541661143303L609.1816339801642,323.23004400730133L609.3821138695429,327.08952820301056L609.630504266128,299.2071487605572L610.2170591164912,340.34202924370766L611.0850300528731,332.217876970768L615.1913791559705,306.9811198711395L615.2211487915163,303.7875825762749L615.4509331658853,286.1780663430691L615.7174644341312,320.8976245522499L616.0960969862292,319.61814245581627L616.6603246099331,328.9050122201443L618.5841873070797,337.1767114698887L619.1930693841022,263.02378034591675L621.3127604650736,319.1549705564976L621.6276673910813,276.3102743625641L622.4733111008039,325.47298899292946L623.4324515460448,295.1839800775051L623.6250238759817,331.5853597819805L624.4883433068096,295.47600424289703L625.0297785532987,332.79020941257477L625.6307530708792,316.72474032640457L626.0456673662987,297.12701520323753L626.4354635317264,292.2683853507042L626.5991965272283,295.4217337667942L626.9145686037915,311.17022609710693L627.1001636753973,326.00420317053795L627.1224909020566,325.0011428296566L628.2881581938964,301.484621822834L628.8700615387055,277.2353226542473L629.0258869747655,304.23196962475777L629.0337945342075,317.8216685950756L629.0486793519804,317.6753326356411L629.8045490045101,298.458880841732L629.8268762311695,301.54624289274216L630.124107436072,313.5687727332115L630.972542049127,299.7618228793144L632.1977486120584,329.68701964616776L633.3159705472472,324.3437857031822L633.8727557620645,296.08970841765404L634.3979107391144,320.6585753560066L635.6607944970335,311.72194308042526L636.6948241816943,313.50717982649803L639.912735723972,308.3543290793896L640.2188047894272,319.6853398382664L640.2560168338595,299.6822336912155L640.6072055031887,294.5506461560726L640.9928153136177,329.93291249871254L641.0523545847093,316.770927965641L641.2230648385422,304.66390854120255L641.9393966938627,321.2301473915577L643.2548424645423,284.5912674665451L643.3069393267475,310.62636664509773L644.8675194401244,329.1311908364296L648.2938184312227,310.1126136481762L648.5612800005794,285.8379957675934L649.2952875770053,292.364703476429L650.4083928560846,297.5869764983654L650.6381772304536,322.1991584300995L652.8853195636054,316.4956890642643L653.018817773006,307.2750591337681L653.6123498817002,309.41954559087753L654.076104985437,323.1937979757786L654.5812584886046,303.75860264897346L656.2999897908186,313.8959445655346L656.3148746085915,291.0060264766216L657.3256467654821,294.17562505602837L657.6447400464886,308.3861253261566L658.5280609511988,311.85118398070335L660.1160849473445,291.34440726041794L660.4947174994425,326.1529048383236L661.5640986263139,332.0094693303108L661.9129615428661,311.2631928026676L662.1506534766771,301.01961931586266L662.7813976298035,306.1332950592041L663.6423913078545,311.34754157066345L663.6935578689487,294.47173288464546L663.7754243666997,311.4233005642891L664.9810946063042,337.46341279149055L665.9095351148885,296.8231343328953L666.850999839024,307.273510158062L667.4287168288346,330.34384167194366L667.8594462431377,298.43426620960236L668.3836709190768,312.4012674987316L669.2228025210238,314.0333809554577L670.4033546306365,314.1235031783581L670.722447911643,337.3414379954338L671.1387576587287,328.4945618212223L672.6388681999033,293.380493581295L672.9500539214678,308.310366332531L673.4919543185122,309.2822781801224L673.92221858226,292.0151419043541L677.7099395549063,314.0981281399727L678.2136976064078,346.8042713999748L678.8114160701006,303.38524317741394L678.9156097945108,305.94457349181175L679.056550412798,311.9142976999283L679.2044682894161,312.87370508909225L679.5133282582036,328.6639352738857L680.3380401929331,326.7276311516762L681.7720993552405,320.2854130268097L682.2879513211823,330.8758725821972L682.5847173755295,297.19162157177925L683.9183040178698,305.5761989057064L684.0890142717027,317.04501217603683L684.6537070459618,311.4223430156708L685.5156310251235,315.24093425273895L685.7012260967293,333.80253544449806L686.6766468114093,317.52896851301193L686.7287436736145,318.1481081843376L686.898988776892,301.15674591064453L687.2148260040105,326.90167969465256L687.2445956395563,314.86588498950005L687.7264916149538,321.1552051305771L688.2107133431283,301.9000852704048L689.590815041009,308.41341546177864L689.8796735359142,303.6518078148365L689.9987520780974,314.1660296022892L691.0681332049688,320.45061832666397L691.261170685461,316.72282522916794L691.5360746637042,321.8782669901848L691.8026059319501,351.7004991173744L692.739884301087,311.0100338459015L693.1468910370646,306.64580887556076L693.4362146825254,309.9028260111809L693.4510995002983,296.6293433904648L694.036258898995,329.89599055051804L694.4069838916513,299.499510884285L694.619092544915,295.62709978222847L695.3805440041098,269.28918993473053L697.342083896244,309.56737419962883L698.1821457993018,290.1758881509304L698.4412346586612,318.25639566779137L700.3050929341609,339.1039470434189L701.5879781659622,338.02205792069435L702.6131699900704,295.6593748033047L703.8751234468787,313.8715552389622L705.0477679970495,313.12044283747673L705.2189434014379,304.4636119008064L705.6343228474127,335.3318250775337L705.9241116434288,341.2068927884102L706.8534824531239,299.35176676511765L707.1628075724668,323.7327570319176L707.5112053384637,315.2540583014488L707.7633169394921,318.23206266760826L708.2159084298992,305.2840902507305L708.3489414887445,295.56714034080505L708.4526700625993,315.1465875506401L708.904796402451,313.8361541032791L710.1067454376123,315.4381892681122L710.4928203985968,320.2893558740616L711.5324318899223,305.0882997214794L713.340937249329,309.1660205125809L715.2238666976002,327.24935433268547L716.4220945283183,321.9712618589401L716.5997820404823,316.59183821082115L716.785377112088,317.6780363023281L718.2980467182585,295.2027086019516L718.5357386520694,329.5013397037983L718.595277923161,342.21781066060066L718.9697241202604,325.0760850906372L720.0265461821359,309.72970685362816L720.1377171648772,339.4715612232685L720.3447091620316,315.6419218182564L720.6265903986057,314.25547590851784L721.5624733160765,288.70224899053574L722.1936826197583,312.29402205348015L722.5941772479604,339.16658198833466L723.1728245388816,310.87758234143257L724.2394147624207,299.93649101257324L724.7566621800287,330.62854340672493L724.8757407222118,335.8881608247757L724.9948192643951,327.83033287525177L725.2692580920827,317.15034252405167L725.8627902007769,290.9460670351982L726.4149239100403,342.93436682224274L726.6368007249675,316.8937194943428L726.9856636415197,333.1764113008976L728.3811153077286,302.3601592183113L728.6188072415396,330.9792033433914L728.8630112831261,346.15530690550804L729.3374648496372,334.53877767920494L729.6272536456531,296.1686216890812L729.7081898422932,280.70598578453064L730.1770616021395,308.07438692450523L731.9269579915655,323.3780134320259L732.2134907336937,325.18761134147644L732.7102715268641,324.8649456202984L734.3550438907689,308.04946249723434L735.4895460953968,327.2924440205097L736.644049773907,312.8840128183365L736.9045340849326,316.2884079515934L736.9570960976932,309.8125066459179L737.9390289201488,336.22535875439644L738.0353150851173,325.34653624892235L738.3758052916722,311.04963129758835L738.5693079227199,302.31416872143745L738.9702677014773,300.13402765989304L739.7033449767922,309.9136688411236L742.5682072475191,306.75440615415573L742.9947503068237,319.58640253543854L743.7827153476763,326.1669019460678L744.2646113230738,301.24129182100296L744.6009151746301,320.47878152132034L745.7251840670391,295.77692797780037L745.8144929736765,320.3878425657749L747.3704215814994,332.8036714196205L747.8718538802237,315.8720432817936L748.1021034051482,306.6799145042896L748.198854720672,309.11175003647804L749.9645662289818,310.8681476712227L750.4613470221522,313.3544508218765L752.1991494971376,293.4178098142147L752.2065919060241,314.3153226971626L752.8824556630245,316.9688025712967L753.2475988490158,342.64166674017906L754.0420759976441,333.32987254858017L755.873838884821,344.0503052473068L756.6394766990143,317.4533221721649L757.2706860026962,288.23668321967125L757.3897645448793,302.53874203562737L760.2322995889468,329.63486140966415L760.3597508411273,313.1007567644119L761.2077203036268,327.52062222361565L761.348660921914,308.35376581549644L761.9501005900499,348.3232814669609L762.3989708760139,339.12425270676613L762.4357177698907,336.96706464886665L762.4803722232094,312.24980583786964L763.9790873127178,321.8263622224331L764.4912180742164,308.0486457645893L764.5875042391848,298.87879407405853L765.0917274412417,310.64481353759766L765.5592037494216,299.7859024107456L767.1300171750174,309.2296411693096L767.7007569064968,316.5017723143101L769.0608571304952,315.3268319964409L769.7841662441468,326.5172239243984L769.941387131873,306.20021080970764L770.2762955317631,346.66953867673874L770.4246785589366,320.7297155857086L771.9540935851016,311.15839755535126L772.683914806529,329.7007351219654L773.0318474219703,329.3713102340698L773.2472121291219,315.82486993074417L774.363573462089,318.69174233078957L774.5119564892626,320.2961713671684L774.5342837159219,322.35901272296906L774.9208238274617,325.72673937678337" fill="none"></path></g></g></g></g></g></g><g transform="translate(41, 378)" clip-path="url(#clip_1)"><clipPath id="clip_1"><rect width="837" height="22"></rect></clipPath><g><g><line x1="0" y1="0" x2="0" y2="5" style="visibility: inherit;" fill="rgb(0, 0, 0)" stroke="rgb(204, 204, 204)" stroke-width="1px"></line><line x1="83.72709997253418" y1="0" x2="83.72709997253418" y2="5" style="visibility: inherit;" fill="rgb(0, 0, 0)" stroke="rgb(204, 204, 204)" stroke-width="1px"></line><line x1="167.45419994506835" y1="0" x2="167.45419994506835" y2="5" style="visibility: inherit;" fill="rgb(0, 0, 0)" stroke="rgb(204, 204, 204)" stroke-width="1px"></line><line x1="251.18129991760256" y1="0" x2="251.18129991760256" y2="5" style="visibility: inherit;" fill="rgb(0, 0, 0)" stroke="rgb(204, 204, 204)" stroke-width="1px"></line><line x1="334.9083998901367" y1="0" x2="334.9083998901367" y2="5" style="visibility: inherit;" fill="rgb(0, 0, 0)" stroke="rgb(204, 204, 204)" stroke-width="1px"></line><line x1="418.6354998626709" y1="0" x2="418.6354998626709" y2="5" style="visibility: inherit;" fill="rgb(0, 0, 0)" stroke="rgb(204, 204, 204)" stroke-width="1px"></line><line x1="502.36259983520506" y1="0" x2="502.36259983520506" y2="5" style="visibility: inherit;" fill="rgb(0, 0, 0)" stroke="rgb(204, 204, 204)" stroke-width="1px"></line><line x1="586.0896998077392" y1="0" x2="586.0896998077392" y2="5" style="visibility: inherit;" fill="rgb(0, 0, 0)" stroke="rgb(204, 204, 204)" stroke-width="1px"></line><line x1="669.8167997802734" y1="0" x2="669.8167997802734" y2="5" style="visibility: inherit;" fill="rgb(0, 0, 0)" stroke="rgb(204, 204, 204)" stroke-width="1px"></line><line x1="753.5438997528076" y1="0" x2="753.5438997528076" y2="5" style="visibility: inherit;" fill="rgb(0, 0, 0)" stroke="rgb(204, 204, 204)" stroke-width="1px"></line><line x1="837.2709997253418" y1="0" x2="837.2709997253418" y2="5" style="visibility: inherit;" fill="rgb(0, 0, 0)" stroke="rgb(204, 204, 204)" stroke-width="1px"></line></g><g transform="translate(0, 8)"><text style="text-anchor: middle; visibility: hidden; font-family: &quot;Helvetica Neue&quot;, sans-serif; font-size: 12px; font-weight: 200;" x="0" y="0" dx="0em" dy="0.95em" fill="rgb(50, 49, 63)" stroke="none" stroke-width="1px">-0.05</text><text style="text-anchor: middle; visibility: inherit; font-family: &quot;Helvetica Neue&quot;, sans-serif; font-size: 12px; font-weight: 200;" x="83.72709997253418" y="0" dx="0em" dy="0.95em" fill="rgb(50, 49, 63)" stroke="none" stroke-width="1px">0</text><text style="text-anchor: middle; visibility: inherit; font-family: &quot;Helvetica Neue&quot;, sans-serif; font-size: 12px; font-weight: 200;" x="167.45419994506835" y="0" dx="0em" dy="0.95em" fill="rgb(50, 49, 63)" stroke="none" stroke-width="1px">0.05</text><text style="text-anchor: middle; visibility: inherit; font-family: &quot;Helvetica Neue&quot;, sans-serif; font-size: 12px; font-weight: 200;" x="251.18129991760256" y="0" dx="0em" dy="0.95em" fill="rgb(50, 49, 63)" stroke="none" stroke-width="1px">0.1</text><text style="text-anchor: middle; visibility: inherit; font-family: &quot;Helvetica Neue&quot;, sans-serif; font-size: 12px; font-weight: 200;" x="334.9083998901367" y="0" dx="0em" dy="0.95em" fill="rgb(50, 49, 63)" stroke="none" stroke-width="1px">0.15</text><text style="text-anchor: middle; visibility: inherit; font-family: &quot;Helvetica Neue&quot;, sans-serif; font-size: 12px; font-weight: 200;" x="418.6354998626709" y="0" dx="0em" dy="0.95em" fill="rgb(50, 49, 63)" stroke="none" stroke-width="1px">0.2</text><text style="text-anchor: middle; visibility: inherit; font-family: &quot;Helvetica Neue&quot;, sans-serif; font-size: 12px; font-weight: 200;" x="502.36259983520506" y="0" dx="0em" dy="0.95em" fill="rgb(50, 49, 63)" stroke="none" stroke-width="1px">0.25</text><text style="text-anchor: middle; visibility: inherit; font-family: &quot;Helvetica Neue&quot;, sans-serif; font-size: 12px; font-weight: 200;" x="586.0896998077392" y="0" dx="0em" dy="0.95em" fill="rgb(50, 49, 63)" stroke="none" stroke-width="1px">0.3</text><text style="text-anchor: middle; visibility: inherit; font-family: &quot;Helvetica Neue&quot;, sans-serif; font-size: 12px; font-weight: 200;" x="669.8167997802734" y="0" dx="0em" dy="0.95em" fill="rgb(50, 49, 63)" stroke="none" stroke-width="1px">0.35</text><text style="text-anchor: middle; visibility: inherit; font-family: &quot;Helvetica Neue&quot;, sans-serif; font-size: 12px; font-weight: 200;" x="753.5438997528076" y="0" dx="0em" dy="0.95em" fill="rgb(50, 49, 63)" stroke="none" stroke-width="1px">0.4</text><text style="text-anchor: middle; visibility: hidden; font-family: &quot;Helvetica Neue&quot;, sans-serif; font-size: 12px; font-weight: 200;" x="837.2709997253418" y="0" dx="0em" dy="0.95em" fill="rgb(50, 49, 63)" stroke="none" stroke-width="1px">0.45</text></g><line x1="0" y1="0" x2="837.2709997253418" y2="0" fill="rgb(0, 0, 0)" stroke="rgb(204, 204, 204)" stroke-width="1px"></line></g></g></g></g></svg>